:version 1.10
:name ASF
:units
  mass 1
  length 1
  angle deg
:documentation
  ASF file generated by Kaydara
:root
  axis xyz
  order  tx ty tz rx ry rz
  position 0 0 0
  orientation 0 0 0
:bonedata
  begin
    id 1
    name RightUpLegDummy
    direction -0.718183 -0.695806 0.00816078
    length 4.904
    axis 0 0 0 xyz
  end
  begin
    id 2
    name RightUpLeg
    direction -0.0736652 -0.994202 0.0783343
    length 17.4976
    axis -2.72909 -3.00389 -4.00133 xyz
    dof rx ry rz
  end
  begin
    id 3
    name RightLeg
    direction -0.0389037 -0.994596 -0.0962598
    length 16.5821
    axis 3.95836 -18.5909 -4.46993 xyz
    dof rx ry rz
  end
  begin
    id 4
    name RightFoot
    direction -0.311643 -0.412678 0.855906
    length 3.77069
    axis -1.99483 -18.8351 -3.27644 xyz
    dof rx ry rz
  end
  begin
    id 5
    name RightToes
    direction -0.317852 0.0389852 0.947339
    length 3.85082
    axis -2.00228 -18.1713 -3.25211 xyz
    dof rx ry rz
  end
  begin
    id 6
    name SpineDummy
    direction 8.3039e-015 1 4.44677e-016
    length 4.6813
    axis 0 0 0 xyz
  end
  begin
    id 7
    name Spine
    direction -0.000262373 0.999988 0.00493267
    length 10.1015
    axis -0.00246081 0.00062579 0.0150362 xyz
    dof rx ry rz
  end
  begin
    id 8
    name Spine1
    direction 0 0 0
    length 0
    axis -0.00349562 0.000650293 0.0196666 xyz
    dof rx ry rz
  end
  begin
    id 9
    name HEadDummy
    direction -0.000343232 0.999999 0.00123745
    length 3.43865
    axis -0.00349562 0.000650293 0.0196666 xyz
  end
  begin
    id 10
    name HEad
    direction -0.0461221 0.980933 0.188796
    length 5.12695
    axis -0.00351404 -7.04812 0.0199272 xyz
    dof rx ry rz
  end
  begin
    id 11
    name LeftShoulder1Dummy
    direction 0.998904 -0.0399089 -0.0244534
    length 3.5433
    axis -0.00349562 0.000650293 0.0196666 xyz
  end
  begin
    id 12
    name LeftShoulder1
    direction 0.99951 1.64443e-005 0.0312999
    length 4.05031
    axis -0.00349562 0.000650293 0.0196666 xyz
    dof rx ry rz
  end
  begin
    id 13
    name LeftArm
    direction 0.984791 0.0515299 0.165927
    length 12.9126
    axis -64.823 -10.7743 5.20463 xyz
    dof rx ry rz
  end
  begin
    id 14
    name LeftForeArm
    direction 0.984968 0.0534808 0.16425
    length 10.8596
    axis -30.0462 -7.70601 1.87451 xyz
    dof rx ry rz
  end
  begin
    id 15
    name LeftHand
    direction 0.975871 0.0289682 0.216418
    length 6.62295
    axis -20.1348 -6.98077 1.86072 xyz
    dof rx ry rz
  end
  begin
    id 16
    name RightShoulderDummy
    direction -0.998877 -0.0405946 -0.0244307
    length 3.5433
    axis -0.00349562 0.000650293 0.0196666 xyz
  end
  begin
    id 17
    name RightShoulder
    direction -0.998933 -0.0249743 -0.0388558
    length 4.05031
    axis -0.0205316 -4.02113 1.41395 xyz
    dof rx ry rz
  end
  begin
    id 18
    name RightArm
    direction -0.997559 0.068664 0.0127103
    length 12.9638
    axis -67.3882 1.84188 -6.15987 xyz
    dof rx ry rz
  end
  begin
    id 19
    name RightForeArm
    direction -0.991508 0.0912848 0.0926241
    length 10.8312
    axis -22.1975 3.41087 -4.28711 xyz
    dof rx ry rz
  end
  begin
    id 20
    name RightHand
    direction -0.989262 0.0600788 0.133232
    length 6.57864
    axis -12.2911 2.17515 -4.39675 xyz
    dof rx ry rz
  end
  begin
    id 21
    name LeftUpLegDummy
    direction 0.718183 -0.695806 0.00816078
    length 4.904
    axis 0 0 0 xyz
  end
  begin
    id 22
    name LeftUpLeg
    direction 0.0831398 -0.99469 0.0606531
    length 17.4976
    axis -1.71016 2.29552 4.63832 xyz
    dof rx ry rz
  end
  begin
    id 23
    name LeftLeg
    direction 0.0498442 -0.991778 -0.117862
    length 16.5821
    axis 5.13757 15.5727 5.13348 xyz
    dof rx ry rz
  end
  begin
    id 24
    name LeftFoot
    direction 0.269026 -0.433896 0.85986
    length 3.77069
    axis -0.576502 15.6961 4.10267 xyz
    dof rx ry rz
  end
  begin
    id 25
    name LeftToes
    direction 0.277311 0.0251143 0.960452
    length 3.85048
    axis -0.576502 15.6961 4.10267 xyz
    dof rx ry rz
  end
:hierarchy
  begin
    root RightUpLegDummy SpineDummy LeftUpLegDummy
    RightUpLegDummy RightUpLeg
    RightUpLeg RightLeg
    RightLeg RightFoot
    RightFoot RightToes
    SpineDummy Spine
    Spine Spine1
    Spine1 HEadDummy LeftShoulder1Dummy RightShoulderDummy
    HEadDummy HEad
    LeftShoulder1Dummy LeftShoulder1
    LeftShoulder1 LeftArm
    LeftArm LeftForeArm
    LeftForeArm LeftHand
    RightShoulderDummy RightShoulder
    RightShoulder RightArm
    RightArm RightForeArm
    RightForeArm RightHand
    LeftUpLegDummy LeftUpLeg
    LeftUpLeg LeftLeg
    LeftLeg LeftFoot
    LeftFoot LeftToes
  end

:SAMPLES-PER-SECOND 30
:FULLY-SPECIFIED
:DEGREES
62
root  7.87353 38.9663 -85.6199 -0.395245 -19.5886 1.96291
RightUpLeg  -19.7791 -12.0707 5.65943
RightLeg  20.7647 5.41475 -5.41337
RightFoot  -8.88205 -0.0238582 1.26158
RightToes  5.82077e-011 -3.18055e-015 -2.98177e-016
Spine  14.6559 1.83514 3.76091
Spine1  3.85192 3.64335 -5.9225
HEad  -13.5187 5.09732 -3.78836
LeftShoulder1  -3.88251e-019 9.70628e-020 -3.87848e-018
LeftArm  -18.8743 46.9321 -69.2401
LeftForeArm  8.5153 -12.0222 -5.40005
LeftHand  -0.83227 -3.91202 11.0478
RightShoulder  7.77037 10.8175 36.1079
RightArm  9.895 -35.2079 27.2978
RightForeArm  11.2532 16.8533 -5.56736
RightHand  -1.36511 2.8115 -18.9895
LeftUpLeg  -10.1036 8.63502 -7.56627
LeftLeg  19.9177 12.8121 11.386
LeftFoot  -11.3587 0.00352409 -2.25661
LeftToes  1.39127e-010 -3.60802e-011 -7.31315e-011
63
root  7.73637 38.9194 -85.6421 1.02106 -19.8643 1.32551
RightUpLeg  -20.9637 -12.738 7.75687
RightLeg  18.7523 8.98266 -3.39127
RightFoot  -6.73724 0.00292788 0.291799
RightToes  5.82077e-011 -3.18055e-015 -2.98177e-016
Spine  15.9954 1.84779 3.83924
Spine1  3.32415 3.54048 -5.32495
HEad  -14.3865 5.66115 -4.07127
LeftShoulder1  -3.88251e-019 9.70628e-020 -3.87848e-018
LeftArm  -18.8215 46.005 -69.2536
LeftForeArm  8.19419 -11.736 -5.3701
LeftHand  -0.719778 -3.08306 10.5415
RightShoulder  7.64882 10.7703 35.6077
RightArm  11.5534 -34.6326 27.925
RightForeArm  9.07301 17.6613 -6.30383
RightHand  -1.37118 2.78375 -19.1346
LeftUpLeg  -11.9538 9.94821 -6.86777
LeftLeg  20.8386 11.6159 11.4106
LeftFoot  -11.5488 -0.00202683 -2.15966
LeftToes  1.39127e-010 -3.60802e-011 -7.31315e-011
64
root  7.54897 38.8334 -85.6728 2.28566 -19.5611 0.960877
RightUpLeg  -21.913 -10.393 8.39181
RightLeg  17.9725 9.32668 -2.51377
RightFoot  -4.7344 0.133328 -1.69352
RightToes  5.82077e-011 -3.18055e-015 -2.98177e-016
Spine  17.4238 1.82608 3.59599
Spine1  3.14888 3.32886 -4.49582
HEad  -15.4095 5.8506 -4.11412
LeftShoulder1  -3.88251e-019 9.70628e-020 -3.87848e-018
LeftArm  -18.8289 44.6029 -69.3053
LeftForeArm  7.70649 -11.5498 -5.27843
LeftHand  -0.687924 -2.75806 10.4873
RightShoulder  7.54128 10.7228 35.1743
RightArm  12.4424 -33.8202 28.6696
RightForeArm  7.14291 18.1576 -6.82377
RightHand  -1.43197 3.06549 -19.3231
LeftUpLeg  -13.9296 10.8228 -6.42155
LeftLeg  22.135 10.2328 11.5048
LeftFoot  -11.7046 -0.00460566 -2.19206
LeftToes  1.39127e-010 -3.60802e-011 -7.31315e-011
65
root  7.33682 38.6632 -85.7052 3.6794 -18.3773 0.621721
RightUpLeg  -23.5266 -8.20296 8.6384
RightLeg  18.81 7.51508 -2.86514
RightFoot  -4.42157 0.269831 -3.42404
RightToes  5.82077e-011 -3.18055e-015 -2.98177e-016
Spine  19.1404 1.49663 3.95362
Spine1  2.63388 2.83514 -3.7848
HEad  -16.3994 5.53098 -3.84216
LeftShoulder1  -3.88251e-019 9.70628e-020 -3.87848e-018
LeftArm  -18.3918 42.8562 -68.9769
LeftForeArm  7.76447 -11.4657 -5.23861
LeftHand  -0.728933 -3.17171 10.5583
RightShoulder  7.51773 10.7233 35.0564
RightArm  13.2659 -32.9563 29.1133
RightForeArm  5.33998 18.468 -7.08008
RightHand  -1.48036 3.14477 -19.7881
LeftUpLeg  -16.5745 11.3421 -6.02759
LeftLeg  24.3128 8.229 11.6653
LeftFoot  -12.5477 -0.021149 -2.76692
LeftToes  1.39127e-010 -3.60802e-011 -7.31315e-011
66
root  7.14146 38.3914 -85.7386 5.49604 -16.5541 -0.0457199
RightUpLeg  -26.1413 -8.16952 9.4815
RightLeg  20.8362 5.67284 -3.4028
RightFoot  -5.30924 0.315485 -4.39681
RightToes  5.82077e-011 -3.18055e-015 -2.98177e-016
Spine  21.0402 0.81308 5.52989
Spine1  1.70744 2.12509 -3.45347
HEad  -17.323 4.93122 -3.2951
LeftShoulder1  -3.88251e-019 9.70628e-020 -3.87848e-018
LeftArm  -17.7184 40.7681 -68.4993
LeftForeArm  8.40442 -11.5424 -5.16478
LeftHand  -0.770986 -3.72645 10.4691
RightShoulder  7.36684 10.6802 34.3806
RightArm  13.26 -32.6013 30.1841
RightForeArm  4.3654 18.6603 -7.33062
RightHand  -1.44329 2.78953 -20.1028
LeftUpLeg  -20.1959 11.8605 -5.40055
LeftLeg  27.4712 5.59786 11.7764
LeftFoot  -14.6349 -0.101889 -4.3631
LeftToes  1.39127e-010 -3.60802e-011 -7.31315e-011
67
root  6.98425 38.0597 -85.7885 7.66451 -15.2 -1.05654
RightUpLeg  -29.4149 -10.0146 11.4783
RightLeg  23.0651 6.00067 -3.34265
RightFoot  -6.07075 0.346352 -5.31167
RightToes  5.82077e-011 -3.18055e-015 -2.98177e-016
Spine  22.5624 0.317556 7.68614
Spine1  1.46812 1.75911 -3.44762
HEad  -18.5467 4.24663 -2.72797
LeftShoulder1  -3.88251e-019 9.70628e-020 -3.87848e-018
LeftArm  -17.4952 38.0537 -68.5192
LeftForeArm  8.91911 -11.8828 -4.86187
LeftHand  -0.781428 -4.04064 10.2526
RightShoulder  6.85391 10.4876 32.1784
RightArm  10.7305 -32.5175 33.1025
RightForeArm  5.58244 18.4969 -7.48642
RightHand  -1.34695 2.52932 -19.3822
LeftUpLeg  -24.4107 12.8878 -4.56942
LeftLeg  31.3324 3.20924 12.0418
LeftFoot  -17.529 -0.307481 -6.67814
LeftToes  1.39127e-010 -3.60802e-011 -7.31315e-011
68
root  6.87139 37.7185 -85.8701 9.65744 -15.0807 -1.89247
RightUpLeg  -32.9698 -13.1418 14.6384
RightLeg  25.3144 9.52152 -2.93004
RightFoot  -6.55994 0.401178 -6.61802
RightToes  5.82077e-011 -3.18055e-015 -2.98177e-016
Spine  23.9132 0.463897 9.31448
Spine1  1.3692 2.15979 -3.83461
HEad  -19.2192 3.33648 -2.19864
LeftShoulder1  -3.88251e-019 9.70628e-020 -3.87848e-018
LeftArm  -16.8749 35.0823 -68.6744
LeftForeArm  8.63704 -12.2669 -4.74537
LeftHand  -0.776518 -4.17918 10.042
RightShoulder  6.75801 10.5844 31.474
RightArm  7.94818 -30.2074 34.2749
RightForeArm  9.17046 17.4534 -6.48363
RightHand  -1.29 2.86625 -17.8582
LeftUpLeg  -28.3298 14.1677 -4.03295
LeftLeg  35.6961 2.19263 13.242
LeftFoot  -19.9612 -0.548596 -8.28282
LeftToes  1.39127e-010 -3.60802e-011 -7.31315e-011
69
root  6.80383 37.3621 -85.9672 11.258 -15.8017 -2.17833
RightUpLeg  -36.6573 -15.2209 17.3077
RightLeg  28.195 12.9906 -2.70723
RightFoot  -7.44187 0.406917 -7.66693
RightToes  5.82077e-011 -3.18055e-015 -2.98177e-016
Spine  25.7693 0.790842 9.83696
Spine1  1.54689 2.68501 -4.07301
HEad  -20.0273 2.75951 -2.00861
LeftShoulder1  -3.88251e-019 9.70628e-020 -3.87848e-018
LeftArm  -16.0777 31.9405 -68.6197
LeftForeArm  7.63729 -13.2208 -4.833
LeftHand  -0.775361 -4.12837 10.0823
RightShoulder  6.6392 10.6287 30.7666
RightArm  4.92145 -26.5443 35.7326
RightForeArm  14.0272 15.7851 -5.04613
RightHand  -1.30429 3.37364 -17.0308
LeftUpLeg  -31.6228 14.9256 -4.13351
LeftLeg  40.716 2.27406 15.7332
LeftFoot  -20.8115 -0.609349 -8.1779
LeftToes  1.39127e-010 -3.60802e-011 -7.31315e-011
70
root  6.77132 36.947 -86.0403 12.8807 -16.6914 -2.15427
RightUpLeg  -40.4076 -14.6262 18.1093
RightLeg  31.8346 13.4793 -2.50698
RightFoot  -8.78708 0.337516 -8.07926
RightToes  5.82077e-011 -3.18055e-015 -2.98177e-016
Spine  27.6288 0.878085 10.0091
Spine1  1.51719 2.93031 -4.5462
HEad  -20.2732 2.77712 -2.02141
LeftShoulder1  -3.88251e-019 9.70628e-020 -3.87848e-018
LeftArm  -14.7442 28.8531 -68.0357
LeftForeArm  6.64479 -14.2031 -5.071
LeftHand  -0.795952 -3.86477 10.6385
RightShoulder  6.65637 10.7125 30.6858
RightArm  2.23682 -21.9568 37.2088
RightForeArm  18.7155 13.5148 -3.63544
RightHand  -1.30859 3.2089 -17.4129
LeftUpLeg  -34.6266 15.2493 -4.77116
LeftLeg  46.3438 1.53165 18.1494
LeftFoot  -20.0037 -0.504002 -7.44621
LeftToes  1.39127e-010 -3.60802e-011 -7.31315e-011
71
root  6.75385 36.4523 -86.0762 15.2105 -17.694 -2.41753
RightUpLeg  -44.8056 -13.7991 19.4183
RightLeg  35.4843 14.1343 -2.21469
RightFoot  -10.0235 0.267011 -8.52879
RightToes  5.82077e-011 -3.18055e-015 -2.98177e-016
Spine  28.5118 0.913013 10.2923
Spine1  1.80486 3.09583 -5.24211
HEad  -20.0875 3.27388 -2.28888
LeftShoulder1  -3.88251e-019 9.70628e-020 -3.87848e-018
LeftArm  -13.437 25.6177 -67.3758
LeftForeArm  6.21686 -14.726 -5.15104
LeftHand  -0.847781 -3.70133 11.5139
RightShoulder  6.50215 10.7285 29.8496
RightArm  -0.111212 -17.8843 39.9039
RightForeArm  21.2572 11.2199 -3.28066
RightHand  -1.23137 2.50563 -17.7969
LeftUpLeg  -37.7454 15.977 -5.62227
LeftLeg  51.9087 -1.06337 18.515
LeftFoot  -18.744 -0.457493 -8.27304
LeftToes  1.39127e-010 -3.60802e-011 -7.31315e-011
72
root  6.75234 35.8895 -86.0922 18.4734 -18.8842 -3.3019
RightUpLeg  -49.6204 -12.0206 21.2462
RightLeg  38.7553 14.5346 -2.01744
RightFoot  -10.9301 0.218282 -9.30506
RightToes  5.82077e-011 -3.18055e-015 -2.98177e-016
Spine  28.3146 1.17808 10.6852
Spine1  2.51289 3.48685 -5.93655
HEad  -19.9918 3.80003 -2.74485
LeftShoulder1  -3.88251e-019 9.70628e-020 -3.87848e-018
LeftArm  -12.4504 22.1008 -66.8541
LeftForeArm  6.21909 -14.8014 -5.1656
LeftHand  -0.913882 -3.92769 12.0902
RightShoulder  6.08316 10.6485 27.8103
RightArm  -1.71757 -14.6666 43.3252
RightForeArm  21.3467 9.90365 -3.82132
RightHand  -1.14286 2.10205 -17.4011
LeftUpLeg  -41.0074 17.1395 -6.39245
LeftLeg  56.5155 -4.1526 16.9079
LeftFoot  -18.8753 -0.598601 -10.7139
LeftToes  1.39127e-010 -3.60802e-011 -7.31315e-011
73
root  6.80619 35.2912 -86.1088 21.8593 -19.601 -4.49904
RightUpLeg  -54.3604 -10.3612 23.2337
RightLeg  41.9124 14.7333 -1.94723
RightFoot  -11.8198 0.160074 -10.1837
RightToes  5.82077e-011 -3.18055e-015 -2.98177e-016
Spine  28.9341 1.26642 11.3948
Spine1  1.71558 3.77876 -6.74349
HEad  -19.6803 3.8923 -3.00515
LeftShoulder1  -3.88251e-019 9.70628e-020 -3.87848e-018
LeftArm  -11.2499 18.8264 -66.2762
LeftForeArm  6.21986 -14.8359 -5.48554
LeftHand  -0.958736 -4.33124 12.1389
RightShoulder  5.89179 10.6251 26.838
RightArm  -1.48316 -11.4704 44.5684
RightForeArm  20.4455 10.2785 -3.97834
RightHand  -1.1359 2.2852 -16.8988
LeftUpLeg  -43.7966 17.4188 -6.81214
LeftLeg  59.344 -6.01791 15.3747
LeftFoot  -21.6917 -0.98847 -12.3396
LeftToes  1.39127e-010 -3.60802e-011 -7.31315e-011
74
root  6.90119 34.6775 -86.1198 24.7587 -19.6939 -5.76775
RightUpLeg  -58.6534 -9.25437 25.2025
RightLeg  45.1119 14.8159 -1.9809
RightFoot  -12.7787 0.0808192 -10.8121
RightToes  5.82077e-011 -3.18055e-015 -2.98177e-016
Spine  30.8529 0.943218 12.4104
Spine1  -0.45478 3.76627 -7.68209
HEad  -19.1726 3.77136 -3.01435
LeftShoulder1  -3.88251e-019 9.70628e-020 -3.87848e-018
LeftArm  -9.97068 15.8715 -65.7016
LeftForeArm  5.84109 -15.1013 -5.82961
LeftHand  -0.971578 -4.51899 12.0628
RightShoulder  5.99536 10.6977 27.2529
RightArm  0.356789 -7.84443 44.0878
RightForeArm  19.2586 11.7147 -3.68294
RightHand  -1.18756 2.59489 -16.993
LeftUpLeg  -45.9382 16.6512 -6.56102
LeftLeg  60.4963 -6.48947 15.1603
LeftFoot  -26.7771 -1.49913 -11.9009
LeftToes  1.39127e-010 -3.60802e-011 -7.31315e-011
